<?xml version="1.0" encoding="UTF-8"?>
<svg version="1.1" xmlns="http://www.w3.org/2000/svg" width="512" height="512">
<path d="M0 0 C1.01790619 0.00215515 2.03581238 0.0043103 3.08456421 0.00653076 C17.69363523 0.05620146 32.02575853 0.30709809 46.375 3.3125 C47.34985352 3.51117676 48.32470703 3.70985352 49.32910156 3.91455078 C97.7109774 14.03517194 141.69928269 35.9516877 177.375 70.3125 C178.3640332 71.26068604 178.3640332 71.26068604 179.37304688 72.22802734 C188.86130305 81.37247479 197.6012044 90.66984009 205.375 101.3125 C206.23306152 102.46355017 207.09113451 103.61459177 207.94921875 104.765625 C213.98736829 112.95680614 219.34595521 121.47054105 224.375 130.3125 C224.73948242 130.94430176 225.10396484 131.57610352 225.47949219 132.22705078 C247.08534998 169.97532572 256.85198095 212.74189997 256.6875 255.9375 C256.68534485 256.95540619 256.6831897 257.97331238 256.68096924 259.02206421 C256.63129854 273.63113523 256.38040191 287.96325853 253.375 302.3125 C253.07698486 303.77478027 253.07698486 303.77478027 252.77294922 305.26660156 C242.65232806 353.6484774 220.7358123 397.63678269 186.375 433.3125 C185.74287598 433.97185547 185.11075195 434.63121094 184.45947266 435.31054688 C175.31502521 444.79880305 166.01765991 453.5387044 155.375 461.3125 C154.22394983 462.17056152 153.07290823 463.02863451 151.921875 463.88671875 C143.73224019 469.92427396 135.22961724 475.30707302 126.375 480.3125 C125.66778809 480.7146875 124.96057617 481.116875 124.23193359 481.53125 C101.09654164 494.5566741 75.92537591 503.30551461 49.9375 508.625 C49.21860596 508.77235596 48.49971191 508.91971191 47.7590332 509.0715332 C33.08339502 511.86090125 18.55831162 512.66142619 3.64770508 512.62817383 C0.70811513 512.6250221 -2.2304558 512.64854926 -5.16992188 512.67382812 C-18.54306192 512.71848737 -31.43916711 511.51301542 -44.625 509.3125 C-46.33055054 509.03031616 -46.33055054 509.03031616 -48.07055664 508.74243164 C-91.33802759 500.97044532 -132.38793216 480.98345309 -165.625 452.3125 C-166.37007813 451.67828125 -167.11515625 451.0440625 -167.8828125 450.390625 C-181.38779833 438.57948485 -194.05918743 425.82889772 -204.625 411.3125 C-205.48149066 410.16255169 -206.33826433 409.01281411 -207.1953125 407.86328125 C-213.23534209 399.67315742 -218.61867614 391.16870382 -223.625 382.3125 C-224.0271875 381.60528809 -224.429375 380.89807617 -224.84375 380.16943359 C-237.8691741 357.03404164 -246.61801461 331.86287591 -251.9375 305.875 C-252.08485596 305.15610596 -252.23221191 304.43721191 -252.3840332 303.6965332 C-255.35789088 288.05024391 -255.99800362 272.57681954 -255.9375 256.6875 C-255.93534485 255.66959381 -255.9331897 254.65168762 -255.93096924 253.60293579 C-255.88129854 238.99386477 -255.63040191 224.66174147 -252.625 210.3125 C-252.42632324 209.33764648 -252.22764648 208.36279297 -252.02294922 207.35839844 C-241.90232806 158.9765226 -219.9858123 114.98821731 -185.625 79.3125 C-184.99287598 78.65314453 -184.36075195 77.99378906 -183.70947266 77.31445312 C-174.56502521 67.82619695 -165.26765991 59.0862956 -154.625 51.3125 C-153.47394983 50.45443848 -152.32290823 49.59636549 -151.171875 48.73828125 C-142.98224019 42.70072604 -134.47961724 37.31792698 -125.625 32.3125 C-124.91778809 31.9103125 -124.21057617 31.508125 -123.48193359 31.09375 C-100.34654164 18.0683259 -75.17537591 9.31948539 -49.1875 4 C-48.46860596 3.85264404 -47.74971191 3.70528809 -47.0090332 3.5534668 C-31.36274391 0.57960912 -15.88931954 -0.06050362 0 0 Z " fill="#48B02C" transform="translate(255.625,-0.3125)"/>
<path d="M0 0 C0.98742187 -0.01933594 1.97484375 -0.03867188 2.9921875 -0.05859375 C9.87496187 1.03132189 14.66127241 5.52043982 19.390625 10.3046875 C19.95070251 10.86189484 20.51078003 11.41910217 21.08782959 11.99319458 C22.26113309 13.16447026 23.43071177 14.33948818 24.59667969 15.51806641 C26.37373437 17.3112229 28.16628209 19.08775967 29.9609375 20.86328125 C31.10513 22.00945581 32.24839172 23.15656045 33.390625 24.3046875 C33.92190002 24.82988983 34.45317505 25.35509216 35.00054932 25.89620972 C39.1005715 30.07413083 42.51236226 34.58858597 42.6875 40.625 C42.29476793 50.03486032 35.40120927 57.56790674 29.82348633 64.65332031 C23.07443325 72.41656669 23.07443325 72.41656669 20.1640625 81.80078125 C21.49387372 85.44965351 23.74339645 88.16846239 26.1875 91.125 C26.93676758 92.05300415 26.93676758 92.05300415 27.70117188 92.99975586 C28.70751736 94.24525373 29.7173971 95.48790506 30.73095703 96.72753906 C32.55483093 98.9647392 34.33778204 101.23346579 36.125 103.5 C43.81797531 113.08082201 51.8420931 122.36305251 60.125 131.4375 C60.94226563 132.34757813 61.75953125 133.25765625 62.6015625 134.1953125 C71.94919367 144.53561246 81.5908079 154.83857046 92.25 163.84375 C94.52883378 165.78075871 96.72824657 167.79655625 98.9375 169.8125 C107.12571793 177.1831349 115.75999581 183.97091907 124.4375 190.75 C125.20255859 191.34901123 125.96761719 191.94802246 126.75585938 192.56518555 C128.86661097 194.20618873 130.99238851 195.82506323 133.125 197.4375 C133.68622559 197.88013184 134.24745117 198.32276367 134.82568359 198.77880859 C137.25588024 200.58846349 138.65720649 201.45643617 141.73046875 201.33203125 C150.20042742 198.16788682 157.34173951 192.16060911 164.4152832 186.66479492 C169.90571334 182.43924698 174.80039274 178.77647999 182.06442261 179.08874512 C188.9482018 180.25383196 194.02977956 184.75662986 198.7421875 189.59375 C199.32541779 190.17789673 199.90864807 190.76204346 200.509552 191.3638916 C201.72924591 192.58958256 202.94412191 193.82008545 204.15429688 195.05517578 C206.00545453 196.94306276 207.87233907 198.81423507 209.7421875 200.68359375 C210.9306387 201.88186984 212.11817189 203.08105728 213.3046875 204.28125 C213.85986053 204.83864868 214.41503357 205.39604736 214.98703003 205.97033691 C219.6563432 210.75543027 221.41202283 213.63748048 221.4375 220.3125 C221.45425781 221.32054687 221.47101563 222.32859375 221.48828125 223.3671875 C220.77946375 229.35783859 217.67729404 233.26016453 213.50170898 237.41723633 C213.04606567 237.87492401 212.59042236 238.33261169 212.12097168 238.8041687 C210.62815165 240.29997258 209.12493461 241.78481472 207.62109375 243.26953125 C206.57583741 244.31172673 205.53117366 245.35451685 204.48707581 246.39787292 C202.30524261 248.57511875 200.11861098 250.74737979 197.92797852 252.91577148 C195.1177071 255.69765632 192.31628321 258.48824288 189.51794338 261.28212452 C187.36435639 263.43156077 185.20795306 265.57815118 183.05049324 267.72369957 C182.01618154 268.75231017 180.98233935 269.78139312 179.9489727 270.81095314 C178.50822561 272.24484313 177.06365331 273.67488655 175.61889648 275.10473633 C174.79743637 275.91936844 173.97597626 276.73400055 173.12962341 277.57331848 C169.39527626 281.04604104 166.05172111 280.90491029 161.10546875 280.828125 C155.87093893 280.14207915 152.35515341 277.44820229 148.125 274.4375 C146.94333382 273.63776944 145.75959362 272.84109812 144.57421875 272.046875 C129.32578651 261.77171845 114.44806279 250.96744769 100.125 239.4375 C99.48852539 238.92719238 98.85205078 238.41688477 98.19628906 237.89111328 C85.17387901 227.43950112 72.43966965 216.72683763 60.234375 205.328125 C58.3247934 203.54506783 56.4006178 201.78936856 54.453125 200.046875 C47.16849007 193.52017896 40.23448641 186.65551392 33.3125 179.75 C32.81236389 179.25245209 32.31222778 178.75490417 31.79693604 178.24227905 C26.5780846 173.04472949 21.44982174 167.81121339 16.65649414 162.21411133 C14.26762888 159.44290576 11.7524166 156.79323431 9.25 154.125 C4.84596276 149.385977 0.64098212 144.54353378 -3.41015625 139.49609375 C-5.29474341 137.15753314 -7.19720516 134.84104639 -9.12109375 132.53515625 C-17.02175014 123.05502669 -24.58618809 113.39472646 -31.875 103.4375 C-32.3994873 102.72480957 -32.92397461 102.01211914 -33.46435547 101.27783203 C-39.63788906 92.87893337 -45.67240241 84.39307801 -51.5 75.75 C-51.99693359 75.01990723 -52.49386719 74.28981445 -53.00585938 73.53759766 C-60.94619965 61.62984049 -60.94619965 61.62984049 -59.875 54.4375 C-56.35449324 48.0484777 -50.94437765 43.21669776 -45.81640625 38.11328125 C-44.82489827 37.12042392 -43.83368716 36.12727004 -42.84275818 35.13383484 C-40.77234684 33.0604863 -38.69839065 30.99076926 -36.62182617 28.92358398 C-33.96769486 26.28086128 -31.32266478 23.62923977 -28.68022251 20.9748354 C-26.63774598 18.92511502 -24.59050908 16.88020263 -22.54182243 14.8366909 C-21.56479253 13.86098974 -20.5892311 12.88381571 -19.61520576 11.90511513 C-18.25166196 10.53646302 -16.88096991 9.17494389 -15.51000977 7.8137207 C-14.73375748 7.0390596 -13.95750519 6.2643985 -13.1577301 5.46626282 C-8.90740258 1.68880948 -5.71376601 0.00742048 0 0 Z " fill="#FEFEFD" transform="translate(174.875,115.5625)"/>
</svg>
